<svg id="visual" viewBox="0 0 900 600" width="900" height="600" xmlns="http://www.w3.org/2000/svg" xmlns:xlink="http://www.w3.org/1999/xlink" version="1.1"><rect x="0" y="0" width="900" height="600" fill="#FFFFFF"></rect><defs><linearGradient id="grad1_0" x1="33.3%" y1="100%" x2="100%" y2="0%"><stop offset="20%" stop-color="#ffffff" stop-opacity="1"></stop><stop offset="80%" stop-color="#ffffff" stop-opacity="1"></stop></linearGradient></defs><defs><linearGradient id="grad2_0" x1="0%" y1="100%" x2="66.7%" y2="0%"><stop offset="20%" stop-color="#ffffff" stop-opacity="1"></stop><stop offset="80%" stop-color="#ffffff" stop-opacity="1"></stop></linearGradient></defs><g transform="translate(900, 600)"><path d="M-135.2 0C-122.7 -18.3 -110.2 -36.7 -100.5 -58C-90.8 -79.3 -83.9 -103.7 -67.6 -117.1C-51.3 -130.5 -25.7 -132.8 0 -135.2L0 0Z" fill="#3c81fa"></path></g><g transform="translate(0, 0)"><path d="M135.2 0C135.4 30.1 135.5 60.1 117.1 67.6C98.7 75.1 61.6 60 39 67.5C16.4 75.1 8.2 105.1 0 135.2L0 0Z" fill="#3c81fa"></path></g></svg>