<svg id="visual" viewBox="0 0 900 600" width="900" height="600" xmlns="http://www.w3.org/2000/svg" xmlns:xlink="http://www.w3.org/1999/xlink" version="1.1"><path d="M0 187L13.7 191C27.3 195 54.7 203 82 191C109.3 179 136.7 147 163.8 146C191 145 218 175 245.2 191C272.3 207 299.7 209 327 195C354.3 181 381.7 151 409 137C436.3 123 463.7 125 491 123C518.3 121 545.7 115 573 117C600.3 119 627.7 129 654.8 126C682 123 709 107 736.2 101C763.3 95 790.7 99 818 105C845.3 111 872.7 119 886.3 123L900 127L900 0L886.3 0C872.7 0 845.3 0 818 0C790.7 0 763.3 0 736.2 0C709 0 682 0 654.8 0C627.7 0 600.3 0 573 0C545.7 0 518.3 0 491 0C463.7 0 436.3 0 409 0C381.7 0 354.3 0 327 0C299.7 0 272.3 0 245.2 0C218 0 191 0 163.8 0C136.7 0 109.3 0 82 0C54.7 0 27.3 0 13.7 0L0 0Z" fill="#a0bceb"></path><path d="M0 271L13.7 270C27.3 269 54.7 267 82 251C109.3 235 136.7 205 163.8 208C191 211 218 247 245.2 269C272.3 291 299.7 299 327 278C354.3 257 381.7 207 409 191C436.3 175 463.7 193 491 198C518.3 203 545.7 195 573 197C600.3 199 627.7 211 654.8 212C682 213 709 203 736.2 195C763.3 187 790.7 181 818 184C845.3 187 872.7 199 886.3 205L900 211L900 125L886.3 121C872.7 117 845.3 109 818 103C790.7 97 763.3 93 736.2 99C709 105 682 121 654.8 124C627.7 127 600.3 117 573 115C545.7 113 518.3 119 491 121C463.7 123 436.3 121 409 135C381.7 149 354.3 179 327 193C299.7 207 272.3 205 245.2 189C218 173 191 143 163.8 144C136.7 145 109.3 177 82 189C54.7 201 27.3 193 13.7 189L0 185Z" fill="#8aade6"></path><path d="M0 415L13.7 406C27.3 397 54.7 379 82 348C109.3 317 136.7 273 163.8 279C191 285 218 341 245.2 362C272.3 383 299.7 369 327 340C354.3 311 381.7 267 409 252C436.3 237 463.7 251 491 256C518.3 261 545.7 257 573 262C600.3 267 627.7 281 654.8 284C682 287 709 279 736.2 271C763.3 263 790.7 255 818 266C845.3 277 872.7 307 886.3 322L900 337L900 209L886.3 203C872.7 197 845.3 185 818 182C790.7 179 763.3 185 736.2 193C709 201 682 211 654.8 210C627.7 209 600.3 197 573 195C545.7 193 518.3 201 491 196C463.7 191 436.3 173 409 189C381.7 205 354.3 255 327 276C299.7 297 272.3 289 245.2 267C218 245 191 209 163.8 206C136.7 203 109.3 233 82 249C54.7 265 27.3 267 13.7 268L0 269Z" fill="#739fe1"></path><path d="M0 529L13.7 513C27.3 497 54.7 465 82 429C109.3 393 136.7 353 163.8 356C191 359 218 405 245.2 431C272.3 457 299.7 463 327 433C354.3 403 381.7 337 409 315C436.3 293 463.7 315 491 328C518.3 341 545.7 345 573 353C600.3 361 627.7 373 654.8 370C682 367 709 349 736.2 346C763.3 343 790.7 355 818 365C845.3 375 872.7 383 886.3 387L900 391L900 335L886.3 320C872.7 305 845.3 275 818 264C790.7 253 763.3 261 736.2 269C709 277 682 285 654.8 282C627.7 279 600.3 265 573 260C545.7 255 518.3 259 491 254C463.7 249 436.3 235 409 250C381.7 265 354.3 309 327 338C299.7 367 272.3 381 245.2 360C218 339 191 283 163.8 277C136.7 271 109.3 315 82 346C54.7 377 27.3 395 13.7 404L0 413Z" fill="#6289c5"></path><path d="M0 601L13.7 601C27.3 601 54.7 601 82 601C109.3 601 136.7 601 163.8 601C191 601 218 601 245.2 601C272.3 601 299.7 601 327 601C354.3 601 381.7 601 409 601C436.3 601 463.7 601 491 601C518.3 601 545.7 601 573 601C600.3 601 627.7 601 654.8 601C682 601 709 601 736.2 601C763.3 601 790.7 601 818 601C845.3 601 872.7 601 886.3 601L900 601L900 389L886.3 385C872.7 381 845.3 373 818 363C790.7 353 763.3 341 736.2 344C709 347 682 365 654.8 368C627.7 371 600.3 359 573 351C545.7 343 518.3 339 491 326C463.7 313 436.3 291 409 313C381.7 335 354.3 401 327 431C299.7 461 272.3 455 245.2 429C218 403 191 357 163.8 354C136.7 351 109.3 391 82 427C54.7 463 27.3 495 13.7 511L0 527Z" fill="#5173aa"></path></svg>